<svg id="Capa_1" data-name="Capa 1" xmlns="http://www.w3.org/2000/svg" viewBox="0 0 614.36 937.29"><defs><style>.cls-1{fill:#d5ff40;}</style></defs><path class="cls-1" d="M846.07,466.26C816.89,462,788,456.5,758.85,453.75c-59.48-5.6-118.19-1.28-175,19.12-84.58,30.39-169.67,29.59-255.28,4.67-7.56-2.2-10.55-5.21-10.52-13.82.36-108.38.21-216.77.21-325.16,0-2.82.25-5.64.4-8.8,18.8,4.16,36.88,8.84,55.22,12.11,79.58,14.19,157.84,12.24,235.1-15.41,72.94-26.09,147.71-25.67,222.69-8.17a39.26,39.26,0,0,1,4.62,1.45,6.37,6.37,0,0,1,1.43,1.11Q754,205.06,670.37,289.14Z" transform="translate(-231.71 -31.71)"/><path class="cls-1" d="M298.42,969H251.35V956q0-417,.13-834c0-7.22-1.57-12.35-7.11-17.65-17.05-16.3-16.67-43.45-.1-60.07s44.74-16.72,61.12,0,16.63,44-.26,60.21c-5.23,5-6.83,9.89-6.83,16.76q.21,417,.12,834Z" transform="translate(-231.71 -31.71)"/></svg>