<svg width="28" height="28" viewBox="0 0 28 28" fill="none" xmlns="http://www.w3.org/2000/svg">
<path fill-rule="evenodd" clip-rule="evenodd" d="M13.9999 1.11621C6.70526 1.11621 0.790039 7.03012 0.790039 14.3261C0.790039 20.1628 4.57507 25.1142 9.82376 26.8611C10.4837 26.9836 10.7261 26.5746 10.7261 26.2256C10.7261 25.9106 10.7139 24.8701 10.7082 23.7662C7.03316 24.5653 6.2577 22.2076 6.2577 22.2076C5.65679 20.6808 4.79098 20.2748 4.79098 20.2748C3.59223 19.4549 4.88132 19.472 4.88132 19.472C6.2076 19.5649 6.90629 20.8332 6.90629 20.8332C8.08448 22.8523 9.99657 22.2687 10.7504 21.9314C10.8689 21.0776 11.2113 20.4946 11.5891 20.1647C8.65498 19.8311 5.57038 18.6982 5.57038 13.6366C5.57038 12.1944 6.08663 11.016 6.93166 10.0906C6.79429 9.75815 6.34213 8.41459 7.05941 6.59502C7.05941 6.59502 8.16848 6.23999 10.6929 7.94909C11.7468 7.65618 12.8771 7.50896 13.9999 7.50393C15.1221 7.50896 16.253 7.65574 17.3089 7.94865C19.8303 6.23955 20.938 6.59459 20.938 6.59459C21.657 8.41393 21.2049 9.75771 21.0677 10.0902C21.9147 11.0155 22.4273 12.1939 22.4273 13.6361C22.4273 18.7098 19.337 19.8268 16.3954 20.154C16.8695 20.564 17.2917 21.3681 17.2917 22.6003C17.2917 24.3678 17.2764 25.7903 17.2764 26.2254C17.2764 26.577 17.5144 26.9889 18.1837 26.8591C23.4294 25.1105 27.21 20.1606 27.21 14.3261C27.2098 7.03055 21.2952 1.11621 13.9999 1.11621Z" fill="#D5FF40"/>
<path d="M5.79347 20.0825C5.76437 20.1481 5.66112 20.1678 5.56706 20.123C5.47081 20.0801 5.41722 19.9906 5.44828 19.9248C5.47672 19.857 5.58019 19.8384 5.67578 19.8837C5.77203 19.9268 5.82672 20.0171 5.79325 20.0827L5.79347 20.0825ZM6.32853 20.6795C6.26575 20.7379 6.14259 20.7108 6.05903 20.6182C5.97241 20.5263 5.95622 20.4032 6.02031 20.3439C6.0855 20.2857 6.20494 20.3133 6.29156 20.4052C6.37775 20.4983 6.39481 20.6204 6.32875 20.6797L6.32853 20.6795ZM6.84959 21.4401C6.76866 21.4965 6.63609 21.4438 6.55428 21.3263C6.47334 21.2086 6.47334 21.0675 6.55647 21.0113C6.63806 20.9549 6.76866 21.0058 6.85178 21.1222C6.93228 21.2414 6.93228 21.3828 6.84959 21.4401ZM7.56294 22.1753C7.49075 22.2551 7.33631 22.2337 7.22344 22.125C7.10816 22.0184 7.076 21.8668 7.14841 21.7872C7.22191 21.7072 7.377 21.7295 7.49053 21.8375C7.60581 21.9438 7.64059 22.0957 7.56337 22.1751L7.56294 22.1753ZM8.54731 22.6021C8.51516 22.7055 8.36684 22.7526 8.217 22.7084C8.06759 22.6631 7.96981 22.5421 8.00044 22.4376C8.03106 22.3332 8.18047 22.2844 8.33119 22.3315C8.48059 22.3765 8.57837 22.4968 8.54731 22.6021ZM9.62859 22.681C9.63231 22.79 9.50544 22.8801 9.34859 22.8823C9.19044 22.886 9.06247 22.7976 9.06094 22.6904C9.06094 22.5804 9.18519 22.4914 9.34312 22.4883C9.49997 22.4855 9.62881 22.573 9.62881 22.6808L9.62859 22.681ZM10.6344 22.51C10.6532 22.6161 10.5441 22.7252 10.3881 22.7543C10.235 22.7828 10.0928 22.7167 10.0731 22.6115C10.0543 22.5025 10.1654 22.3934 10.3185 22.3652C10.4747 22.3383 10.6147 22.4021 10.6344 22.51Z" fill="#D5FF40"/>
</svg>
