<svg width="28" height="26" viewBox="0 0 28 26" fill="none" xmlns="http://www.w3.org/2000/svg">
<path fill-rule="evenodd" clip-rule="evenodd" d="M13.9999 0.116211C6.70526 0.116211 0.790039 6.03012 0.790039 13.3261C0.790039 19.1628 4.57507 24.1142 9.82376 25.8611C10.4837 25.9836 10.7261 25.5746 10.7261 25.2256C10.7261 24.9106 10.7139 23.8701 10.7082 22.7662C7.03316 23.5653 6.2577 21.2076 6.2577 21.2076C5.65679 19.6808 4.79098 19.2748 4.79098 19.2748C3.59223 18.4549 4.88132 18.472 4.88132 18.472C6.2076 18.5649 6.90629 19.8332 6.90629 19.8332C8.08448 21.8523 9.99657 21.2687 10.7504 20.9314C10.8689 20.0776 11.2113 19.4946 11.5891 19.1647C8.65498 18.8311 5.57038 17.6982 5.57038 12.6366C5.57038 11.1944 6.08663 10.016 6.93166 9.09065C6.79429 8.75815 6.34213 7.41459 7.05941 5.59502C7.05941 5.59502 8.16848 5.23999 10.6929 6.94909C11.7468 6.65618 12.8771 6.50896 13.9999 6.50393C15.1221 6.50896 16.253 6.65574 17.3089 6.94865C19.8303 5.23955 20.938 5.59459 20.938 5.59459C21.657 7.41393 21.2049 8.75771 21.0677 9.09021C21.9147 10.0155 22.4273 11.1939 22.4273 12.6361C22.4273 17.7098 19.337 18.8268 16.3954 19.154C16.8695 19.564 17.2917 20.3681 17.2917 21.6003C17.2917 23.3678 17.2764 24.7903 17.2764 25.2254C17.2764 25.577 17.5144 25.9889 18.1837 25.8591C23.4294 24.1105 27.21 19.1606 27.21 13.3261C27.2098 6.03055 21.2952 0.116211 13.9999 0.116211Z" fill="#1C252F"/>
<path d="M5.79347 19.0825C5.76437 19.1481 5.66112 19.1678 5.56706 19.123C5.47081 19.0801 5.41722 18.9906 5.44828 18.9248C5.47672 18.857 5.58019 18.8384 5.67578 18.8837C5.77203 18.9268 5.82672 19.0171 5.79325 19.0827L5.79347 19.0825ZM6.32853 19.6795C6.26575 19.7379 6.14259 19.7108 6.05903 19.6182C5.97241 19.5263 5.95622 19.4032 6.02031 19.3439C6.0855 19.2857 6.20494 19.3133 6.29156 19.4052C6.37775 19.4983 6.39481 19.6204 6.32875 19.6797L6.32853 19.6795ZM6.84959 20.4401C6.76866 20.4965 6.63609 20.4438 6.55428 20.3263C6.47334 20.2086 6.47334 20.0675 6.55647 20.0113C6.63806 19.9549 6.76866 20.0058 6.85178 20.1222C6.93228 20.2414 6.93228 20.3828 6.84959 20.4401ZM7.56294 21.1753C7.49075 21.2551 7.33631 21.2337 7.22344 21.125C7.10816 21.0184 7.076 20.8668 7.14841 20.7872C7.22191 20.7072 7.377 20.7295 7.49053 20.8375C7.60581 20.9438 7.64059 21.0957 7.56337 21.1751L7.56294 21.1753ZM8.54731 21.6021C8.51516 21.7055 8.36684 21.7526 8.217 21.7084C8.06759 21.6631 7.96981 21.5421 8.00044 21.4376C8.03106 21.3332 8.18047 21.2844 8.33119 21.3315C8.48059 21.3765 8.57837 21.4968 8.54731 21.6021ZM9.62859 21.681C9.63231 21.79 9.50544 21.8801 9.34859 21.8823C9.19044 21.886 9.06247 21.7976 9.06094 21.6904C9.06094 21.5804 9.18519 21.4914 9.34312 21.4883C9.49997 21.4855 9.62881 21.573 9.62881 21.6808L9.62859 21.681ZM10.6344 21.51C10.6532 21.6161 10.5441 21.7252 10.3881 21.7543C10.235 21.7828 10.0928 21.7167 10.0731 21.6115C10.0543 21.5025 10.1654 21.3934 10.3185 21.3652C10.4747 21.3383 10.6147 21.4021 10.6344 21.51Z" fill="#1C252F"/>
</svg>
